<svg xmlns="http://www.w3.org/2000/svg" version="1.1" viewBox="695 479 664 683">
<path transform="translate(767,540)" d="m0 0h242l3 1v193l-1 1h-66l-1-10v-117h-119l1 226 3 17 5 17 8 18 9 15 9 11 9 10 12 10 15 10 24 14 21 12 3 2v-148l5-1h57l6 1v265l-8-4-24-14-28-16-24-14-28-16-17-10-26-15-12-8-14-11-12-11-8-8-11-14-10-14-9-16-6-12-8-21-6-22-3-20-1-10-1-284 1-6z" fill="#010101"/>
<path transform="translate(696,479)" d="m0 0h662l1 2-1 362-3 23-5 23-6 21-10 24-12 23-12 18-9 12-11 13-21 21-14 11-11 8-19 12-23 13-21 12-26 15-28 16-24 14-25 14-25 15-21 11h-10l-17-9-24-14-28-16-52-30-17-10-23-13-21-12-25-15-14-10-10-8-20-18-9-10-11-13-12-17-9-15-12-23-9-23-7-26-4-21-2-17-1-38v-281zm33 32v334l4 26 7 25 6 16 12 25 11 17 10 13 12 14 17 17 14 11 15 10 15 9 25 14 52 30 19 11 42 24 26 15 10 6 6-2 21-12 29-17 28-16 26-15 24-14 18-10 24-14 21-13 14-10 13-11 11-10 7-8 10-12 12-17 10-17 9-19 9-27 5-22 2-16 1-18v-316l-1-1z" fill="#010101"/>
<path transform="translate(1043,532)" d="m0 0h254v161l-1 1h-65l-1-1-1-20v-72l-119-1v156h187l1 4v43l-1 22h-66l-1-1-120-1v214l-2 4-10 6-22 13-14 8-17 10h-3v-545z" fill="#010101"/>
<path transform="translate(696,479)" d="m0 0h662l1 2-1 362-3 23-5 23-6 21-10 24-12 23-12 18-9 12-11 13-21 21-14 11-11 8-19 12-23 13-21 12-26 15-28 16-24 14-25 14-25 15-21 11h-10l-17-9-24-14-28-16-52-30-17-10-23-13-21-12-25-15-14-10-10-8-20-18-9-10-11-13-12-17-9-15-12-23-9-23-7-26-4-21-2-17-1-38v-281zm2 1v225l1 107 1 36 4 24 4 16 5 17 6 15 5 11 8 16 9 15 13 19 4 5h2l2 4 6 8h2l2 4 13 13 8 6 13 10 17 12 12 7 17 10 16 9 21 12 9 5 20 12 23 13 14 8 24 14 22 13 12 6 13 8 5-2 6-3v-2l5-1 11-6 13-8 17-10 18-10 22-13 10-6 14-7 16-10 18-10 58-34 17-12 5-4v-2l4-2 10-9 6-6v-2l4-2 2-4 4-2 4-5v-2h2l11-15 7-11 5-8 7-12 5-14 4-8 6-15 5-18 3-15 2-8 2-21 1-122v-237l-92-1h-279l-100-1z" fill="#3C3C3C"/>
<path transform="translate(767,540)" d="m0 0h242l3 1v193l-1 1h-66l-1-10v-117h-119l1 226 3 17 5 17 8 18 9 15 9 11 9 10 12 10 15 10 24 14 21 12 3 2v-148l5-1h57l6 1v265l-8-4-24-14-28-16-24-14-28-16-17-10-26-15-12-8-14-11-12-11-8-8-11-14-10-14-9-16-6-12-8-21-6-22-3-20-1-10-1-284 1-6zm-8 2v136l1 94 1 56 2 22 4 22 8 22 9 19 11 19 11 15 12 14 5 5 5 4 5 6 12 9 6 4 16 10 13 8 11 6 17 10 10 5 10 6 17 10 10 6 12 6 8 5 11 6 21 12 1-1 1-91v-162h-33l-26 1-2 2v144h-7l-7-3-25-14-11-6-14-9-10-8h-2l-1-3-8-7-7-8-10-13-6-11-8-16-5-14-4-19-1-14v-79l1-55v-67l-1-22 125 1v49l1 76 8 1h54v-189z" fill="#363636"/>
<path transform="translate(919,508)" d="m0 0h406l3 1 1 3 1 247v81l-2 21-5 26-7 17-4 12-9 19-8 13-7 11-7 9-3 4h-2l-2 4-6 7h-2l-1 3h-2l-2 4-13 12-7 6h-2v2l-11 8-9 5-4 1v2l-11 6-7 5-12 6-4 3-10 5-14 8-10 6-14 8-9 5-12 7h-3v2l-11 6-16 9-11 7-11 6-22 13-5 4h-10l-9-5-17-10-38-22-16-9-10-6-13-7-14-8-7-5-11-6-18-10-10-7-7-3v-2l-6-2-14-8-8-5v-2l-5-2-14-11-6-5-5-6-2-1v-2l-3-1-3-4v-2l-4-2-3-5-5-5-10-13-6-10-9-16-6-11-6-17-5-14-4-15-4-26-1-15 1-80 1-62 1-181zm-190 3v334l4 26 7 25 6 16 12 25 11 17 10 13 12 14 17 17 14 11 15 10 15 9 25 14 52 30 19 11 42 24 26 15 10 6 6-2 21-12 29-17 28-16 26-15 24-14 18-10 24-14 21-13 14-10 13-11 11-10 7-8 10-12 12-17 10-17 9-19 9-27 5-22 2-16 1-18v-316l-1-1z" fill="#454545"/>
<path transform="translate(1043,532)" d="m0 0h5l-4 1 1 52 1 283 1 106v95l9-3 9-6 21-12 16-10 3-6 1-176 1-35 2-2h116l15 1h51l1-2 1-47-1-10-3-1-179-1-3-2 1-160 1-1 60-1h62l1 1v97h64v1h-65l-1-1-1-20v-72l-119-1v156h187l1 4v43l-1 22h-66l-1-1-120-1v214l-2 4-10 6-22 13-14 8-17 10h-3v-545z" fill="#3B3B3B"/>
<path transform="translate(767,540)" d="m0 0h242l3 1v193l-1 1h-66l-1-10v-117h-119v215h-1l-1-130-1-67v-22l7-1 113 1 5 1 1 49v76l62 1v-189l-2 1h-111l-138-1v-1z" fill="#595959"/>
<path transform="translate(1048,532)" d="m0 0h249v161h-65l-1-2v-88l2 1v85l62 1-1-3-1-126v-25h-33l-215-1v50h-1v-52z" fill="#282828"/>
<path transform="translate(1157,595)" d="m0 0h74l1 1v97h64v1h-65l-1-1-1-20v-72l-119-1v155l-2-3v-155l1-1z" fill="#8E8E8E"/>
<path transform="translate(1043,532)" d="m0 0h5l-4 1v543l3 1-5 1v-545z" fill="#FEFEFE"/>
<path transform="translate(767,540)" d="m0 0h229l5 1v1l-13 1h-91l-138-1v-1z" fill="#7E7E7E"/>
</svg>