<svg xmlns="http://www.w3.org/2000/svg" version="1.1" viewBox="693 474 661 685">
<path transform="translate(782,536)" d="m0 0h183l43 1v192l-2 1h-57l-7-2v-125h-121l1 2 1 197 1 28 3 18 5 16 7 16 8 14 9 12 8 9 11 9 12 9 29 17 20 12 4 3 2-147 1-1h65l1 65v199l-5-1-27-16-23-13-29-17-42-24-19-11-18-11-14-11-14-12-8-8-9-11-13-18-12-20-9-21-6-18-4-20-2-17-1-18v-275l1-2z" fill="#FEFEFE"/>
<path transform="translate(694,474)" d="m0 0h660v368l-4 26-6 25-8 24-9 20-9 17-11 16-14 17-7 8-10 11-8 7-10 9-18 13-25 15-24 14-52 30-28 16-26 15-15 9-26 15-17 10h-6l-20-11-23-14-10-6-11-6-18-10-22-13-18-10-24-14-18-10-16-9-22-13-16-11-13-11-14-12-19-19-9-11-10-14-15-25-13-29-9-27-5-24-2-14-1-13v-358zm32 32v337l3 21 7 26 9 23 8 16 9 15 9 13 11 13 9 10 12 12 10 8 16 11 21 13 42 24 26 15 15 9 27 15 21 12 29 17 11 7h5l18-10 25-15 26-15 17-10 28-15 29-17 10-6 12-6 21-13 16-11 14-11 12-11 10-10 9-11 14-19 13-23 8-19 5-15 6-24 2-11 1-11 1-75v-52l-1-206-75-1z" fill="#FEFEFE"/>
<path transform="translate(1094,527)" d="m0 0h157l42 1 1 1v159l-1 1h-66l-1-8v-65l1-21h-120l1 156h185l1 1v66l-3 2-9 1h-54l-1-1-22-1-98-1v204l-1 13-11 7-19 11-21 12-13 8h-2l-1-8v-536l1-1z" fill="#FEFEFE"/>
</svg>